<svg width="24" height="24" viewBox="0 0 24 24" fill="none" xmlns="http://www.w3.org/2000/svg">
<path d="M16.9614 11.809C16.936 11.7475 16.8992 11.6921 16.8528 11.6459L12.3535 7.14655C12.1597 6.95935 11.8525 6.95935 11.6588 7.14655C11.4601 7.33838 11.4547 7.65491 11.6465 7.85352L15.293 11.5H7.5C7.22388 11.5 7 11.7239 7 12C7 12.2761 7.22388 12.5 7.5 12.5H15.293L11.6465 16.1465C11.5527 16.2402 11.5001 16.3674 11.5001 16.4999C11.5 16.7761 11.7239 16.9999 12 17C12.1326 17.0001 12.2598 16.9474 12.3535 16.8535L16.8532 12.3538C16.8995 12.3076 16.936 12.2523 16.9614 12.1909C16.9854 12.1329 16.9968 12.0715 16.998 12.0097C16.9981 12.0063 17 12.0034 17 12C17 11.9976 16.9987 11.9956 16.9987 11.9932C16.9978 11.9305 16.9858 11.8679 16.9614 11.809ZM12 2C6.47717 2 2 6.47717 2 12C2 17.5228 6.47717 22 12 22C17.5201 21.9935 21.9935 17.5201 22 12C22 6.47717 17.5228 2 12 2ZM12 21C7.02942 21 3 16.9706 3 12C3 7.02942 7.02942 3 12 3C16.9683 3.00562 20.9944 7.03174 21 12C21 16.9706 16.9706 21 12 21Z" fill="black"/>
</svg>
